<?xml version="1.0" encoding="UTF-8"?>
<svg width="564px" height="41px" viewBox="0 0 564 41" version="1.1" xmlns="http://www.w3.org/2000/svg" xmlns:xlink="http://www.w3.org/1999/xlink">
    <title>არ გაჩერდე</title>
    <defs>
        <path d="M505.408103,21.4139689 C498.589604,21.4139689 494.060767,22.2921664 490.485213,25.1881795 L490.457743,25.1510418 C492.901088,18.4749926 489.868994,15.8462254 487.167282,15.8462254 C484.448495,15.8462254 482.08756,18.5448989 480.437133,21.0163769 L480.348784,21.0163769 C480.508407,17.8123394 478.571401,15.8549637 476.042676,15.8549637 C472.377287,15.8549637 468.117953,19.9240914 468.07415,27.1462834 C467.464967,26.5678857 466.780445,26.0710763 466.0384,25.6687851 C469.156616,19.0939544 466.462329,15.753017 463.606192,15.753017 C462.306422,15.6699291 461.061683,16.2795248 460.348398,17.3484821 L460.260049,17.3484821 L464.926979,0.292807572 L461.531836,0.292807572 L451.059085,21.4569321 L450.970735,21.4569321 C451.273648,19.4383884 450.117681,15.8564201 447.07445,15.8564201 C444.735788,15.8564201 442.270171,18.1691526 441.15281,20.0646321 L441.06446,20.0646321 C441.218886,18.0730315 440.013176,15.8564201 437.592104,15.8564201 C436.856913,15.8692112 436.143754,16.1047446 435.550415,16.5307243 L435.462066,16.5307243 C435.462066,16.5307243 435.684796,15.6743725 435.753842,15.4173213 C440.811291,12.6654899 445.202778,8.76238961 445.202778,4.44203622 C445.202778,2.39654951 444.173767,0.77996692 442.517401,0.22872682 C441.405807,-0.154163255 440.180376,-0.0529431247 439.149727,0.506895537 C436.816262,1.74918829 434.992106,5.24013286 433.432998,11.4821806 C433.278572,12.0873068 433.124889,12.6975303 432.970463,13.3026565 C430.240526,14.7081192 427.314362,15.7114159 424.286232,16.2802269 L423.469556,16.4083884 L422.424211,18.4698953 L423.249796,19.2709047 C425.362758,21.3098376 425.774066,23.0189004 425.456305,23.939333 C425.291916,24.4298014 424.842343,24.7747421 424.317414,24.8131615 C423.304736,24.941323 421.951282,23.4208615 421.496171,22.7094195 L420.902225,21.7722385 L419.796001,21.9972493 C419.295601,22.099196 418.789262,22.20624 418.276984,22.3234786 C418.073958,20.6975299 417.450639,19.149448 416.466192,17.826175 C415.481805,16.5734541 413.956714,15.8443959 412.344207,15.8556919 C409.34478,15.8556919 405.657861,18.6555838 402.851467,21.2093474 L402.79133,21.1722097 C403.176652,19.9728802 402.636904,15.8986551 399.324171,15.8986551 C398.011798,15.8972216 396.783711,16.5327482 396.044105,17.5960668 L395.955755,17.5960668 L401.013947,0.28916662 L397.591334,0.28916662 L397.464378,0.530197628 C397.404241,0.648164466 391.234628,12.5176673 384.719042,16.5008685 L383.99814,16.9377827 L383.91573,18.8704 L384.543085,19.3684822 C386.019986,20.4144157 386.680117,22.2494407 386.199452,23.9728298 C386.042013,24.6025838 385.479057,25.0544026 384.818527,25.0811355 C382.782036,25.0811355 381.802767,21.2100756 381.802767,21.2100756 L1.77751266,21.2100756 C0.795819526,21.2100756 -1.20222736e-16,22.0058951 0,22.9875882 C-2.05957391e-15,23.9692814 0.795819526,24.7651009 1.77751266,24.7651009 L379.716532,24.7651009 L379.716532,24.7651009 C380.629724,26.3977037 382.324697,28.2240051 384.806649,28.2240051 C386.83337,28.2125809 388.621994,26.9222039 389.236742,25.0279776 C390.019156,22.6666887 389.49855,20.0763895 387.861015,18.1829883 C390.117267,16.4753819 393.017208,12.5562614 394.789394,9.4883954 L394.932683,9.4883954 L389.528518,28.0332192 L393.061754,28.0332192 C394.481285,22.8455911 396.58905,18.9526855 398.48745,18.9526855 C400.369516,18.9526855 399.63228,23.7230605 397.122859,28.0332192 L400.612291,28.0332192 L401.096357,27.4659589 C403.897554,24.1891023 409.427933,18.9963769 412.333813,18.9963769 C414.320562,18.9963769 414.959054,21.7372854 415.13501,23.1776459 C411.939851,24.1678197 409.09411,26.0216045 406.924451,28.5262041 C402.742329,33.4050795 403.837417,36.6156708 404.503379,37.7742216 C405.356347,39.2263523 406.953018,40.1022175 408.661,40.0549138 C408.938962,40.0535254 409.216514,40.0338199 409.491782,39.9959304 C412.518679,39.5677545 416.32216,36.6710132 417.90651,29.8180138 C418.236576,28.4009798 418.424563,26.9556828 418.467789,25.5027577 C418.787035,25.4299387 419.111478,25.3527505 419.432951,25.2843006 C420.407022,26.4494052 422.328437,28.2291024 424.732433,27.9239907 C426.480042,27.7378501 427.958011,26.5724722 428.518838,24.9384102 C429.15733,23.0968168 428.656188,20.9661318 427.143111,18.8776819 C428.781483,18.4398543 430.386791,17.8906848 431.947391,17.2341562 C430.731287,21.8494267 429.674806,25.6287347 429.663669,25.6811644 L429.113527,27.6618421 L432.608156,27.6618421 C432.830886,26.8965141 433.395134,25.0061319 433.785654,23.6626207 C434.825059,20.1126927 436.179255,18.6381072 437.497815,19.0903134 C438.74139,19.513392 437.641105,24.2997873 436.270575,27.6509193 L439.578111,27.7368457 C441.492844,23.2606596 445.268112,18.9883668 446.880675,18.9883668 C449.945436,18.9883668 445.686102,30.5207175 441.855893,39.4832844 L445.427735,39.4832844 L457.61699,14.260955 L457.760279,14.260955 L454.089694,27.6596576 L457.44623,27.6596576 C458.700941,23.4084823 461.683292,18.8849638 463.339658,18.8849638 C465.171981,18.8849638 463.845997,23.545382 461.473926,27.6545602 C465.84908,27.6545602 467.587856,29.5070765 470.42766,35.1287061 C470.553874,35.3857572 470.68083,35.6384393 470.798876,35.8838395 C471.503445,37.2863341 472.580714,39.4760025 472.580714,39.4760025 L476.399786,39.4760025 C476.399786,39.4760025 474.643933,36.3811935 473.697332,34.5024623 C472.568835,32.2647334 471.292594,29.72699 471.292594,27.2533273 C471.292594,21.5355767 474.41081,19.0029306 475.860038,19.0029306 C476.443589,19.0029306 477.164491,19.3291599 477.164491,20.8343293 C477.164491,23.2861463 475.227485,25.1816258 473.471633,24.4104722 L471.908813,27.1943439 C477.224628,29.593003 480.79647,25.3418277 483.399438,22.236824 C484.615542,20.7913661 485.65569,18.8267085 487.042554,18.9869104 C488.274992,19.1325485 489.200062,22.9810345 482.860432,33.6461105 C482.134334,34.711453 481.380022,35.8576246 480.587847,37.0729743 L479.019087,39.4876535 L482.992585,39.4876535 C482.992585,39.4876535 484.918455,36.3768243 485.617826,35.2954616 C491.049461,26.8681146 494.57156,24.5553821 505.401421,24.5553821 L564,24.5553821 L564,21.4139689 L505.408103,21.4139689 Z M440.41058,2.79580032 C440.530004,2.71749923 440.66522,2.67437131 440.803584,2.67044917 C440.904078,2.67325612 441.003571,2.69352448 441.098503,2.73052872 C441.37354,2.8343699 441.550491,3.33058243 441.550491,3.99590774 C441.550491,6.19882434 439.654395,8.59829746 437.011392,10.6817967 C438.482673,4.55739187 439.863158,3.12809211 440.41058,2.79580032 Z M414.794816,28.4967463 C413.553182,33.9370419 410.897152,36.1844617 409.004279,36.4535243 C408.347917,36.605885 407.664866,36.3417429 407.284169,35.7883418 C406.758371,34.8653077 407.000238,32.7770833 409.394121,29.9414628 C410.957683,28.0999491 412.962694,26.6804815 415.223717,25.814342 C415.139958,26.7166701 414.997696,27.612671 414.797821,28.4967463 L414.794816,28.4967463 Z" id="path-1"></path>
        <rect id="path-3" x="0" y="0" width="564" height="60.0851064"></rect>
    </defs>
    <g id="Login-Page" stroke="none" stroke-width="1" fill="none" fill-rule="evenodd">
        <g id="Login-Page-/-large" transform="translate(-1044.000000, -525.000000)">
            <g id="არ-გაჩერდე" transform="translate(1044.000000, 525.000000)">
                <mask id="mask-2" fill="white">
                    <use xlink:href="#path-1"></use>
                </mask>
                <use id="Path_4833" fill="#FFFFFF" fill-rule="nonzero" xlink:href="#path-1"></use>
                <g id="Group" mask="url(#mask-2)">
                    <g transform="translate(0.000000, -13.499513)" id="layer-/-◼︎-border-10-/-shadow-10">
                        <mask id="mask-4" fill="white">
                            <use xlink:href="#path-3"></use>
                        </mask>
                        <use id="Mask" fill-opacity="0" fill="#FFFFFF" xlink:href="#path-3"></use>
                        <g id="Group" mask="url(#mask-4)" fill="#FF6C1D">
                            <g id="color-/-invert-/-background-/-solid-/-10">
                                <rect id="Rectangle" x="0" y="0" width="564" height="60.0851064"></rect>
                            </g>
                        </g>
                    </g>
                </g>
            </g>
        </g>
    </g>
</svg>